<svg xmlns="http://www.w3.org/2000/svg" width="22" height="22" viewBox="0 0 22 22">
  <path id="喇叭" d="M119.739,153.745c-.568-8.6-3.771-7.566-3.771-7.566s-4.3,5.3-14.33,5.764v7.436a40.047,40.047,0,0,1,7.032.994c2.771.778,4.632,1.216,7.159,3.372C115.829,163.746,120.374,163.38,119.739,153.745ZM97.8,152.071h2.739v7.254H97.8Zm9.615,11.987a7.447,7.447,0,0,1-1.4-2.948h-2.571c0,2.637,2.394,5.966,2.9,6.635s1.142.369,2.6,0,.272-1.842.272-1.842A12.726,12.726,0,0,1,107.415,164.057Z" transform="translate(-97.8 -146.14)" fill="#fff"/>
</svg>
