<svg xmlns="http://www.w3.org/2000/svg" width="19.794" height="19.6" viewBox="0 0 19.794 19.6">
  <g id="组_298" data-name="组 298" transform="translate(-411.658 -4375.8)">
    <g id="合作" transform="translate(411.371 4351)">
      <path id="路径_23" data-name="路径 23" d="M272.264,629.62l-2.449,2.7,1.031.933,2.449-2.7Zm2.124,1.867-2.451,2.922L273,635.3l2.451-2.922Z" transform="translate(-264.241 -592.956)" fill="#fefefe"/>
      <path id="路径_24" data-name="路径 24" d="M153.881,44.4c4.364-5.194,6.848-8.234,7.51-9.2,1.236-1.8,1.15-2.924-.408-4.41q-.577-.547-1.187-1.058c-.508-.429-2.059-1.668-2.262-1.843a2.513,2.513,0,0,0-3.812.305c-.506.617-3.125,3.639-7.823,9.027l1.467,1.279c4.726-5.42,7.336-8.431,7.861-9.072.343-.418.621-.422,1.034-.065.238.2,1.8,1.453,2.278,1.857q.564.473,1.1.979c.849.81.854.872.148,1.9-.609.886-3.095,3.927-7.4,9.048l1.491,1.252Zm3.279-18.111,4.422,3.726,1.254-1.489L158.414,24.8Z" transform="translate(-142.756)" fill="#fefefe"/>
      <path id="路径_25" data-name="路径 25" d="M4.133,99.59c-.109-.095-.264-.247-.46-.453L3.541,99q-.055-.058-.1-.121c-.154-.2-.158-.242.049-.5.68-.857,2.3-2.714,3.119-3.6.346-.373.493-.391.929-.066a9.354,9.354,0,0,1,1.481,1.38l1.471-1.275A11.3,11.3,0,0,0,8.7,93.153a2.427,2.427,0,0,0-3.521.3c-.847.915-2.5,2.806-3.215,3.707a2.183,2.183,0,0,0-.053,2.918c.065.082.131.159.206.239l.148.156c.236.248.433.441.6.584L4.133,99.59Zm-.757-8.57L.287,94.429l1.437,1.313,3.089-3.41Z" transform="translate(0 -64.921)" fill="#fefefe"/>
    </g>
  </g>
</svg>
