<svg xmlns="http://www.w3.org/2000/svg" width="15.515" height="14.923" viewBox="0 0 15.515 14.923">
  <g id="采购管理" transform="translate(-63.975 -82.155)">
    <path id="路径_17" data-name="路径 17" d="M257.328,816.978m-1.108,0a1.108,1.108,0,1,0,1.108-1.108A1.108,1.108,0,0,0,256.22,816.978Z" transform="translate(-188.916 -721.008)" fill="#fefefe"/>
    <path id="路径_18" data-name="路径 18" d="M674.338,816.978m-1.108,0a1.108,1.108,0,1,0,1.108-1.108A1.108,1.108,0,0,0,673.23,816.978Z" transform="translate(-598.705 -721.008)" fill="#fefefe"/>
    <path id="路径_19" data-name="路径 19" d="M78.763,84.124H66.3a.558.558,0,0,0-.078.006l-.185-1.05,0-.015a1.024,1.024,0,0,0-.438-.649,1.823,1.823,0,0,0-1.072-.26.554.554,0,1,0,.006,1.108h.006a.988.988,0,0,1,.419.059L66.769,93.61a.763.763,0,0,0,.759.7h9.192a.554.554,0,1,0,0-1.108h-8.9l-.137-.776h9.409a.716.716,0,0,0,.719-.6l1.66-6.886a.554.554,0,0,0,.015-.13A.71.71,0,0,0,78.763,84.124ZM76.8,91.316H67.491l-1.072-6.085H78.264Z" transform="translate(0)" fill="#fefefe"/>
  </g>
</svg>
