<svg xmlns="http://www.w3.org/2000/svg" width="16.459" height="16.459" viewBox="0 0 16.459 16.459">
  <g id="销售计划" transform="translate(-170.667 -170.667)">
    <path id="路径_20" data-name="路径 20" d="M280.411,282.927a1.026,1.026,0,1,1-1.026-1.026,1.026,1.026,0,0,1,1.026,1.026m-3.078,0a2.052,2.052,0,1,0,2.052-2.052,2.054,2.054,0,0,0-2.052,2.052m13.381,6.584h-5.258a.513.513,0,0,0,0,1.026h5.258a.513.513,0,1,0,0-1.026m0,2.052h-5.258a.513.513,0,0,0,0,1.026h5.258a.513.513,0,1,0,0-1.026m0,2.1h-5.258a.513.513,0,0,0,0,1.026h5.258a.513.513,0,1,0,0-1.026" transform="translate(-104.101 -107.558)" fill="#fefefe"/>
    <path id="路径_21" data-name="路径 21" d="M179.641,185.651a4.586,4.586,0,0,1-1.342-.933l-6.606-6.607v-6.419h6.594l6.519,6.519a4.583,4.583,0,0,1,1.242,2.268.513.513,0,1,0,1-.219,5.609,5.609,0,0,0-1.518-2.775l-6.59-6.589a.5.5,0,0,0-.092-.062.509.509,0,0,0-.376-.169H171.18a.513.513,0,0,0-.513.513v7.028a.468.468,0,0,0,.024.114.5.5,0,0,0,.146.384l6.738,6.739a5.6,5.6,0,0,0,1.642,1.141.513.513,0,0,0,.427-.934" fill="#fefefe"/>
  </g>
</svg>
